<svg width="77" height="71" viewBox="0 0 77 71" fill="none" xmlns="http://www.w3.org/2000/svg">
<g clip-path="url(#clip0_55344_650)">
<path d="M0.327997 37.672C-0.216002 37.672 -0.488001 38.408 -0.488001 39.88C-0.488001 40.68 -0.152 41.656 0.52 42.808C1.192 43.928 2.072 44.968 3.16 45.928C4.216 46.856 5.4 47.624 6.712 48.232C8.024 48.84 9.416 49.144 10.888 49.144C12.328 49.144 13.464 48.68 14.296 47.752C15.096 46.792 15.496 45.736 15.496 44.584C15.496 43.4 15.304 42.072 14.92 40.6C14.536 39.128 14.12 37.592 13.672 35.992C12.456 31.736 11.832 28.744 11.8 27.016C11.8 26.28 11.896 25.72 12.088 25.336C12.28 24.92 12.648 24.712 13.192 24.712C14.152 24.712 15.176 25.288 16.264 26.44C17.352 27.592 18.376 29.064 19.336 30.856C21.544 34.952 22.712 38.952 22.84 42.856C22.776 43.304 22.712 43.752 22.648 44.2C22.584 44.648 22.552 45.128 22.552 45.64C22.552 46.664 23.064 47.608 24.088 48.472C25.08 49.304 26.2 49.72 27.448 49.72C28.184 49.72 28.728 49.368 29.08 48.664C29.432 47.928 29.608 47.032 29.608 45.976C29.608 44.92 29.368 43.48 28.888 41.656C28.408 39.832 27.88 37.896 27.304 35.848C25.768 30.44 24.984 26.408 24.952 23.752C24.952 22.408 25.128 21.352 25.48 20.584C25.8 19.816 26.44 19.432 27.4 19.432C29.128 19.432 30.84 20.664 32.536 23.128C34.232 25.592 35.752 29.416 37.096 34.6C37.448 35.944 37.72 37.112 37.912 38.104L37.96 39.016C37.352 41.96 37.048 43.88 37.048 44.776C37.048 46.632 37.704 47.88 39.016 48.52C39.624 48.808 40.216 49.08 40.792 49.336C41.336 49.592 41.928 49.72 42.568 49.72C44.168 49.72 44.968 48.2 44.968 45.16C44.968 42.088 44.12 36.104 42.424 27.208C41.816 24.008 41.512 22.216 41.512 21.832C41.512 19.24 42.168 17.944 43.48 17.944C43.928 17.944 44.344 18.072 44.728 18.328C45.08 18.584 45.448 18.856 45.832 19.144C46.184 19.432 46.552 19.704 46.936 19.96C47.32 20.216 47.768 20.344 48.28 20.344C48.76 20.344 49 19.912 49 19.048C49 17.288 48.184 15.848 46.552 14.728C44.984 13.576 43.08 13 40.84 13C37.96 13 36.264 14.344 35.752 17.032C35.624 17.832 35.528 18.68 35.464 19.576C33.096 15.128 30.104 12.904 26.488 12.904C22.552 12.904 20.296 14.792 19.72 18.568C19.528 19.656 19.448 20.824 19.48 22.072V22.456C17.4 19.576 14.936 18.136 12.088 18.136C8.056 18.136 6.04 20.568 6.04 25.432C6.04 27.544 6.376 30.024 7.048 32.872C7.688 35.688 8.168 37.72 8.488 38.968C8.776 40.184 8.92 41.128 8.92 41.8C8.92 43.016 8.504 43.624 7.672 43.624C6.808 43.624 4.776 41.96 1.576 38.632C0.999998 37.992 0.583998 37.672 0.327997 37.672Z" fill="#972A2A"/>
<path d="M28.328 37.672C27.784 37.672 27.512 38.408 27.512 39.88C27.512 40.68 27.848 41.656 28.52 42.808C29.192 43.928 30.072 44.968 31.16 45.928C32.216 46.856 33.4 47.624 34.712 48.232C36.024 48.84 37.416 49.144 38.888 49.144C40.328 49.144 41.464 48.68 42.296 47.752C43.096 46.792 43.496 45.736 43.496 44.584C43.496 43.4 43.304 42.072 42.92 40.6C42.536 39.128 42.12 37.592 41.672 35.992C40.456 31.736 39.832 28.744 39.8 27.016C39.8 26.28 39.896 25.72 40.088 25.336C40.28 24.92 40.648 24.712 41.192 24.712C42.152 24.712 43.176 25.288 44.264 26.44C45.352 27.592 46.376 29.064 47.336 30.856C49.544 34.952 50.712 38.952 50.84 42.856C50.776 43.304 50.712 43.752 50.648 44.2C50.584 44.648 50.552 45.128 50.552 45.64C50.552 46.664 51.064 47.608 52.088 48.472C53.08 49.304 54.2 49.72 55.448 49.72C56.184 49.72 56.728 49.368 57.08 48.664C57.432 47.928 57.608 47.032 57.608 45.976C57.608 44.92 57.368 43.48 56.888 41.656C56.408 39.832 55.88 37.896 55.304 35.848C53.768 30.44 52.984 26.408 52.952 23.752C52.952 22.408 53.128 21.352 53.48 20.584C53.8 19.816 54.44 19.432 55.4 19.432C57.128 19.432 58.84 20.664 60.536 23.128C62.232 25.592 63.752 29.416 65.096 34.6C65.448 35.944 65.72 37.112 65.912 38.104L65.96 39.016C65.352 41.96 65.048 43.88 65.048 44.776C65.048 46.632 65.704 47.88 67.016 48.52C67.624 48.808 68.216 49.08 68.792 49.336C69.336 49.592 69.928 49.72 70.568 49.72C72.168 49.72 72.968 48.2 72.968 45.16C72.968 42.088 72.12 36.104 70.424 27.208C69.816 24.008 69.512 22.216 69.512 21.832C69.512 19.24 70.168 17.944 71.48 17.944C71.928 17.944 72.344 18.072 72.728 18.328C73.08 18.584 73.448 18.856 73.832 19.144C74.184 19.432 74.552 19.704 74.936 19.96C75.32 20.216 75.768 20.344 76.28 20.344C76.76 20.344 77 19.912 77 19.048C77 17.288 76.184 15.848 74.552 14.728C72.984 13.576 71.08 13 68.84 13C65.96 13 64.264 14.344 63.752 17.032C63.624 17.832 63.528 18.68 63.464 19.576C61.096 15.128 58.104 12.904 54.488 12.904C50.552 12.904 48.296 14.792 47.72 18.568C47.528 19.656 47.448 20.824 47.48 22.072V22.456C45.4 19.576 42.936 18.136 40.088 18.136C36.056 18.136 34.04 20.568 34.04 25.432C34.04 27.544 34.376 30.024 35.048 32.872C35.688 35.688 36.168 37.72 36.488 38.968C36.776 40.184 36.92 41.128 36.92 41.8C36.92 43.016 36.504 43.624 35.672 43.624C34.808 43.624 32.776 41.96 29.576 38.632C29 37.992 28.584 37.672 28.328 37.672Z" fill="white"/>
<g filter="url(#filter0_d_55344_650)">
<circle cx="56.5" cy="50.5" r="7.5" fill="#7E2323"/>
<path d="M57 60C63.2857 60 68.4465 64.8125 69 70.9541H45C45.5535 64.8125 50.7143 60.0001 57 60Z" fill="#7E2323"/>
<circle cx="19.5" cy="50.5" r="7.5" fill="#7E2323"/>
<path d="M20 60C26.2857 60 31.4465 64.8125 32 70.9541H8C8.55347 64.8125 13.7143 60.0001 20 60Z" fill="#7E2323"/>
<g filter="url(#filter1_d_55344_650)">
<circle cx="37.5" cy="40.5" r="10.5" fill="#9F2E2E"/>
<path d="M38.4658 53C49.186 53 57.9877 61.2082 58.9316 71.6826H18C18.944 61.2082 27.7457 53 38.4658 53Z" fill="#9F2E2E"/>
</g>
</g>
</g>
<defs>
<filter id="filter0_d_55344_650" x="4" y="30" width="69" height="49.6826" filterUnits="userSpaceOnUse" color-interpolation-filters="sRGB">
<feFlood flood-opacity="0" result="BackgroundImageFix"/>
<feColorMatrix in="SourceAlpha" type="matrix" values="0 0 0 0 0 0 0 0 0 0 0 0 0 0 0 0 0 0 127 0" result="hardAlpha"/>
<feOffset dy="4"/>
<feGaussianBlur stdDeviation="2"/>
<feComposite in2="hardAlpha" operator="out"/>
<feColorMatrix type="matrix" values="0 0 0 0 0 0 0 0 0 0 0 0 0 0 0 0 0 0 0.25 0"/>
<feBlend mode="normal" in2="BackgroundImageFix" result="effect1_dropShadow_55344_650"/>
<feBlend mode="normal" in="SourceGraphic" in2="effect1_dropShadow_55344_650" result="shape"/>
</filter>
<filter id="filter1_d_55344_650" x="14" y="30" width="48.9316" height="49.6826" filterUnits="userSpaceOnUse" color-interpolation-filters="sRGB">
<feFlood flood-opacity="0" result="BackgroundImageFix"/>
<feColorMatrix in="SourceAlpha" type="matrix" values="0 0 0 0 0 0 0 0 0 0 0 0 0 0 0 0 0 0 127 0" result="hardAlpha"/>
<feOffset dy="4"/>
<feGaussianBlur stdDeviation="2"/>
<feComposite in2="hardAlpha" operator="out"/>
<feColorMatrix type="matrix" values="0 0 0 0 0 0 0 0 0 0 0 0 0 0 0 0 0 0 0.25 0"/>
<feBlend mode="normal" in2="BackgroundImageFix" result="effect1_dropShadow_55344_650"/>
<feBlend mode="normal" in="SourceGraphic" in2="effect1_dropShadow_55344_650" result="shape"/>
</filter>
<clipPath id="clip0_55344_650">
<rect width="77" height="71" rx="15" fill="white"/>
</clipPath>
</defs>
</svg>
